<svg width="602" height="369" viewBox="0 0 602 369" fill="none" xmlns="http://www.w3.org/2000/svg">
<g clip-path="url(#clip0_16_119)">
<path d="M512.536 247.107C514.536 247.203 516.53 246.826 518.362 246.007C520.194 245.187 521.813 243.946 523.092 242.382C524.371 240.818 525.275 238.974 525.733 236.995C526.19 235.016 526.189 232.957 525.729 230.978C525.268 229 524.362 227.157 523.08 225.596C521.799 224.034 520.178 222.795 518.345 221.978C516.512 221.161 514.517 220.787 512.517 220.886C510.518 220.986 508.568 221.555 506.822 222.55L509.106 228.903L504.407 224.323C501.888 226.662 500.386 229.92 500.231 233.383C500.172 234.597 500.282 235.814 500.559 236.997C501.201 239.775 502.718 242.265 504.879 244.09C507.041 245.914 509.728 246.973 512.536 247.107Z" fill="#57B894"/>
<path d="M550.312 317.237C547.572 312.085 550.681 305.77 554.255 301.176C557.829 296.581 562.186 291.8 562.093 285.946C561.96 277.532 553.164 272.563 546.137 268.103C540.923 264.793 536.114 260.866 531.81 256.406C530.084 254.618 528.416 252.706 527.407 250.421C525.954 247.132 525.994 243.389 526.086 239.785C526.391 227.779 526.975 215.784 527.839 203.802" stroke="#3F3D56" stroke-miterlimit="10"/>
<path d="M512.536 245.285C514.536 245.382 516.53 245.005 518.362 244.185C520.194 243.365 521.813 242.124 523.092 240.561C524.371 238.997 525.275 237.153 525.733 235.174C526.19 233.195 526.189 231.135 525.729 229.157C525.268 227.179 524.362 225.336 523.08 223.774C521.799 222.212 520.178 220.974 518.345 220.157C516.512 219.34 514.517 218.966 512.517 219.065C510.518 219.164 508.568 219.734 506.822 220.728L509.106 227.082L504.407 222.502C501.888 224.84 500.386 228.099 500.231 231.561C500.172 232.776 500.282 233.993 500.559 235.176C501.201 237.954 502.718 240.444 504.879 242.268C507.041 244.092 509.728 245.152 512.536 245.285V245.285Z" stroke="#3F3D56" stroke-miterlimit="10"/>
<path d="M514.48 205.574C514.58 203.376 515.224 201.239 516.351 199.36C517.479 197.481 519.054 195.92 520.932 194.822L523.825 200.634L523.738 193.598C526.367 192.812 529.173 192.894 531.752 193.833C534.332 194.772 536.551 196.519 538.088 198.822C539.626 201.124 540.404 203.864 540.308 206.644C540.213 209.425 539.25 212.103 537.558 214.291C535.866 216.479 533.532 218.065 530.895 218.82C528.258 219.574 525.452 219.458 522.884 218.487C520.316 217.517 518.118 215.744 516.607 213.423C515.097 211.101 514.352 208.353 514.48 205.574Z" fill="#57B894"/>
<path d="M514.48 203.145C514.58 200.948 515.224 198.811 516.351 196.932C517.479 195.053 519.054 193.492 520.932 192.394L523.825 198.206L523.738 191.17C526.367 190.384 529.173 190.466 531.752 191.405C534.332 192.344 536.551 194.091 538.088 196.393C539.626 198.696 540.404 201.435 540.308 204.216C540.213 206.996 539.25 209.674 537.558 211.863C535.866 214.051 533.532 215.637 530.895 216.391C528.258 217.145 525.452 217.029 522.884 216.059C520.316 215.089 518.118 213.315 516.607 210.994C515.097 208.673 514.352 205.925 514.48 203.145V203.145Z" stroke="#3F3D56" stroke-miterlimit="10"/>
<path d="M544.008 268.911C547.179 269.061 550.293 268.022 552.757 265.991C555.222 263.959 556.864 261.078 557.371 257.897C557.877 254.715 557.213 251.455 555.505 248.739C553.797 246.023 551.164 244.039 548.108 243.167L548.176 248.574L545.25 242.693C545.238 242.691 545.226 242.69 545.214 242.691C543.519 242.61 541.824 242.87 540.227 243.454C538.63 244.039 537.163 244.937 535.908 246.097C534.653 247.258 533.635 248.658 532.913 250.218C532.191 251.778 531.778 253.467 531.699 255.188C531.62 256.91 531.876 258.631 532.451 260.252C533.027 261.873 533.912 263.364 535.055 264.638C536.198 265.912 537.577 266.946 539.113 267.679C540.649 268.412 542.312 268.831 544.008 268.911Z" fill="#57B894"/>
<path d="M543.909 266.483C547.08 266.633 550.194 265.593 552.658 263.562C555.122 261.531 556.765 258.65 557.271 255.468C557.778 252.287 557.114 249.027 555.406 246.311C553.698 243.594 551.065 241.611 548.009 240.739L548.076 246.146L545.15 240.264C545.139 240.263 545.127 240.262 545.115 240.262C543.419 240.182 541.725 240.441 540.128 241.026C538.531 241.61 537.063 242.508 535.808 243.669C534.553 244.83 533.536 246.23 532.814 247.789C532.092 249.349 531.679 251.038 531.6 252.76C531.521 254.482 531.776 256.202 532.352 257.824C532.928 259.445 533.812 260.935 534.955 262.21C536.098 263.484 537.477 264.517 539.014 265.25C540.55 265.983 542.213 266.402 543.909 266.483V266.483Z" stroke="#3F3D56" stroke-miterlimit="10"/>
<path d="M537.528 293.781C538.884 296.457 541.106 298.578 543.819 299.789C546.533 300.999 549.574 301.226 552.433 300.43C555.291 299.634 557.793 297.864 559.519 295.417C561.245 292.97 562.09 289.996 561.912 286.991C561.735 283.987 560.545 281.136 558.543 278.917C556.541 276.698 553.848 275.245 550.916 274.803C547.984 274.36 544.991 274.955 542.44 276.486C539.889 278.018 537.933 280.394 536.903 283.216L544.975 289.885L536.095 287.795C536.093 289.878 536.585 291.931 537.528 293.781Z" fill="#57B894"/>
<path d="M537.528 291.96C538.884 294.636 541.106 296.757 543.819 297.967C546.533 299.178 549.574 299.404 552.433 298.608C555.291 297.812 557.793 296.043 559.519 293.596C561.245 291.149 562.09 288.174 561.912 285.17C561.735 282.166 560.545 279.315 558.543 277.096C556.541 274.877 553.848 273.424 550.916 272.981C547.984 272.539 544.991 273.133 542.44 274.665C539.889 276.197 537.933 278.573 536.903 281.394L544.975 288.064L536.095 285.974C536.093 288.057 536.585 290.11 537.528 291.96V291.96Z" stroke="#3F3D56" stroke-miterlimit="10"/>
<path d="M438.928 92.7154C440.486 98.9446 439.3 105.644 436.663 111.486C434.026 117.329 430.02 122.421 425.78 127.193C423.647 129.594 421.339 132.147 420.887 135.348C420.283 139.615 423.117 143.477 425.021 147.331C426.685 150.706 427.695 154.375 427.995 158.138C428.251 161.368 427.853 164.929 425.624 167.25C423.475 169.487 420.175 170.028 417.11 170.318C408.67 171.113 400.167 170.904 391.775 169.696C394.126 166.52 393.243 164.55 393.022 160.583C392.588 152.8 387.01 145.754 385.927 138.037C385.066 131.902 389.066 126.27 392.846 121.405L410.182 99.0972C413.054 95.4007 415.915 91.5933 417.978 87.3554C419.452 84.3269 419.728 78.641 423.437 77.6312C430.424 75.7285 437.57 87.2822 438.928 92.7154Z" fill="#47465A"/>
<path d="M353.857 111.103C353.857 111.103 341.898 146.923 335.919 149.351C329.94 151.779 371.795 195.492 371.795 195.492L402.29 180.314L403.486 151.172L391.527 150.565C391.527 150.565 389.733 138.423 395.713 132.352C401.692 126.281 353.857 111.103 353.857 111.103Z" fill="#FBBEBE"/>
<path opacity="0.1" d="M353.857 111.103C353.857 111.103 341.898 146.923 335.919 149.351C329.94 151.779 371.795 195.492 371.795 195.492L402.29 180.314L403.486 151.172L391.527 150.565C391.527 150.565 389.733 138.423 395.713 132.352C401.692 126.281 353.857 111.103 353.857 111.103Z" fill="black"/>
<path d="M367.61 171.814C367.61 171.814 341.898 154.208 340.702 139.637C340.702 139.637 321.569 152.387 315.589 151.779C309.61 151.172 293.466 154.815 293.466 157.243C293.466 159.672 308.414 228.276 308.414 228.276C308.414 228.276 297.651 257.418 303.033 266.525C308.414 275.631 311.404 318.13 311.404 318.13H435.774C435.774 318.13 419.032 288.381 428.001 267.132C436.97 245.883 440.558 156.636 440.558 156.636C440.558 156.636 433.98 151.779 427.403 152.994C420.826 154.208 413.053 149.351 408.269 148.744C403.486 148.137 392.645 150.622 392.645 150.622L367.61 171.814Z" fill="#6C63FF"/>
<path d="M602 317.479V344.192C602 348.893 600.175 353.405 596.922 356.749C593.668 360.094 589.248 362.002 584.618 362.06L31.0399 368.999C29.7021 369.016 28.3743 368.763 27.1336 368.255C25.8929 367.747 24.7639 366.993 23.812 366.039C22.8602 365.084 22.1044 363.947 21.5887 362.694C21.0729 361.44 20.8073 360.095 20.8073 358.737V329.208C20.8073 326.564 21.8209 324.024 23.6333 322.126C25.4458 320.228 27.9148 319.121 30.5172 319.04L585.906 301.635C587.996 301.569 590.078 301.931 592.027 302.697C593.977 303.464 595.755 304.621 597.256 306.098C598.757 307.576 599.95 309.345 600.765 311.3C601.58 313.255 602 315.356 602 317.479Z" fill="#47465A"/>
<path opacity="0.1" d="M602 336.95V344.192C602 348.893 600.175 353.405 596.922 356.749C593.668 360.094 589.248 362.002 584.618 362.06L31.0399 368.999C29.7021 369.016 28.3743 368.763 27.1336 368.255C25.8929 367.747 24.7639 366.993 23.812 366.039C22.8602 365.084 22.1044 363.947 21.5887 362.694C21.0729 361.44 20.8073 360.095 20.8073 358.737V357.787L602 336.95Z" fill="black"/>
<path d="M493.176 318.13L423.134 308.902L298.586 313.515L343.692 327.843L493.176 318.13Z" fill="#F2F2F2"/>
<path d="M307.218 313.88V321.165L239.054 336.95L232.393 335.39L231.281 335.129L182.25 308.416L307.218 313.88Z" fill="#9493B6"/>
<path opacity="0.1" d="M307.218 313.88V321.165L239.054 336.95L232.393 335.39L231.281 327.843L307.218 313.88Z" fill="black"/>
<path d="M228.889 325.415C230.084 324.808 255.198 319.951 255.198 319.951L209.755 315.701L228.889 325.415Z" fill="#47465A"/>
<path d="M386.146 142.066C407.61 142.066 425.011 124.398 425.011 102.603C425.011 80.8083 407.61 63.1403 386.146 63.1403C364.681 63.1403 347.28 80.8083 347.28 102.603C347.28 124.398 364.681 142.066 386.146 142.066Z" fill="#FBBEBE"/>
<path d="M273.136 281.095C273.136 281.095 238.456 296.273 230.085 292.024C221.713 287.774 196.6 276.846 188.827 299.309C182.558 317.424 219.152 318.562 233.553 318.323C235.294 318.294 237.009 317.882 238.578 317.115C240.147 316.348 241.533 315.244 242.641 313.88L292.569 296.577C292.569 296.577 281.507 277.453 273.136 281.095Z" fill="#FBBEBE"/>
<path d="M371.197 253.168L375.383 256.811L336.517 312.666C336.517 312.666 330.538 313.273 332.331 310.237L371.197 253.168Z" fill="#47465A"/>
<path d="M373.589 256.811L377.775 251.347L375.981 250.132L371.795 254.989L373.589 256.811Z" fill="#47465A"/>
<path d="M302.734 153.297C302.734 153.297 282.404 156.94 283.002 172.725C283.6 188.51 278.517 206.42 273.734 214.92C268.95 223.419 272.538 230.098 273.734 241.633C274.93 253.168 267.754 265.31 271.342 271.382C274.93 277.453 232.476 281.703 232.476 287.774C232.476 293.845 259.383 305.38 254.6 313.273C251.158 318.951 275.416 309.389 289.298 303.576C292.913 302.096 296.123 299.752 298.656 296.743C301.188 293.735 302.968 290.15 303.845 286.294C304.266 284.359 304.378 282.613 303.929 281.399C302.136 276.542 323.362 270.167 323.96 258.025C324.558 245.883 320.971 233.74 317.981 221.598C314.991 209.456 302.734 153.297 302.734 153.297Z" fill="#6C63FF"/>
<path d="M6.44384 216.839L181.782 218.523C182.994 218.535 184.178 218.897 185.194 219.568C186.211 220.238 187.018 221.189 187.521 222.309L234.775 327.431C235.226 328.435 235.417 329.538 235.33 330.638C235.243 331.737 234.88 332.796 234.277 333.713C233.674 334.63 232.85 335.376 231.884 335.879C230.917 336.382 229.84 336.627 228.754 336.588L52.801 330.409C51.6293 330.367 50.4915 329.999 49.5127 329.344C48.5339 328.689 47.7519 327.772 47.2527 326.695L0.614846 226.068C0.155411 225.077 -0.0487272 223.983 0.0215553 222.89C0.0918378 221.797 0.43424 220.74 1.01669 219.817C1.59915 218.895 2.40259 218.138 3.35179 217.617C4.30099 217.096 5.36488 216.828 6.44384 216.839Z" fill="#7A799C"/>
<path d="M420.228 281.096C420.228 281.096 385.548 296.273 377.176 292.024C368.805 287.774 343.692 276.846 335.919 299.309C329.65 317.424 366.244 318.562 380.645 318.323C382.386 318.295 384.101 317.882 385.67 317.115C387.239 316.348 388.625 315.244 389.733 313.88L440.558 308.416C440.558 308.416 428.599 277.453 420.228 281.096Z" fill="#FBBEBE"/>
<path opacity="0.1" d="M440.857 166.047C440.857 166.047 449.527 154.208 453.712 165.136C457.898 176.064 457.3 218.562 457.3 218.562C457.3 218.562 464.475 239.811 462.083 253.775C459.692 267.739 464.475 269.56 464.475 269.56C464.475 269.56 465.671 275.631 462.083 278.667C458.496 281.703 456.104 295.059 457.3 296.88C458.496 298.702 455.506 310.237 453.114 310.237C450.723 310.237 445.64 309.326 445.64 309.326C445.64 309.326 433.382 286.559 407.671 284.738C407.671 284.738 411.857 278.667 409.465 266.525C407.073 254.382 440.857 166.047 440.857 166.047Z" fill="black"/>
<path d="M439.362 157.244C439.362 157.244 449.228 153.297 453.413 164.225C457.599 175.154 461.485 218.562 461.485 218.562C461.485 218.562 468.661 239.812 466.269 253.775C463.877 267.739 468.661 269.56 468.661 269.56C468.661 269.56 469.856 275.631 466.269 278.667C462.681 281.703 460.289 295.059 461.485 296.881C462.681 298.702 459.692 310.237 457.3 310.237C454.908 310.237 432.784 313.88 432.784 313.88C432.784 313.88 437.568 286.56 411.857 284.738C411.857 284.738 416.042 278.667 413.651 266.525C411.259 254.382 439.362 157.244 439.362 157.244Z" fill="#6C63FF"/>
<path d="M399.165 46.9133C393.203 43.1266 386.455 40.7981 379.455 40.1113C372.455 39.4246 365.394 40.3984 358.827 42.9561C351.788 45.7674 345.57 50.3446 339.755 55.2564C335.09 59.1966 330.541 63.4951 327.675 68.9258C323.329 77.1598 323.342 86.9613 323.46 96.3022C323.562 104.435 323.667 112.592 324.758 120.649C326.255 131.7 329.609 142.641 328.839 153.769C328.069 164.897 321.628 176.769 310.861 178.989C320.877 179.758 330.945 179.464 340.9 178.11C347.175 177.256 353.762 175.797 358.35 171.368C361.7 168.133 363.594 163.672 365.241 159.286C366.897 154.877 368.413 150.296 368.355 145.578C368.234 135.761 361.521 127.527 357.139 118.775C355.909 116.319 354.83 113.678 354.872 110.922C354.915 108.167 356.332 105.275 358.854 104.257C361.966 103.002 365.57 104.874 368.805 103.997C374.003 102.587 375.352 95.2573 380.125 92.7348C383.656 90.8683 388.163 92.2678 391.132 94.9605C392.46 96.1647 393.598 97.6202 395.138 98.5271C397.226 99.7568 399.762 99.8165 402.176 99.8436C406.682 99.8942 422.063 92.7222 425.31 89.55C428.478 106.096 452.037 91.696 438.517 67.2851C433.809 58.7857 427.566 50.8915 419.26 45.9962C410.954 41.101 400.356 39.5826 391.637 43.6697" fill="#47465A"/>
<path d="M358.939 121.727C361.912 121.727 364.321 117.378 364.321 112.013C364.321 106.648 361.912 102.299 358.939 102.299C355.967 102.299 353.558 106.648 353.558 112.013C353.558 117.378 355.967 121.727 358.939 121.727Z" fill="#FBBEBE"/>
<path d="M411.857 149.666C411.857 149.666 445.042 154.511 446.836 156.94C448.63 159.368 445.042 173.939 445.042 173.939L421.125 178.189L402.721 174.159L411.857 149.666Z" fill="#6C63FF"/>
<path opacity="0.1" d="M310.137 173.439C305.139 172.565 300.264 177.157 297.676 183.213C295.089 189.268 294.386 196.524 294.131 203.573C293.878 210.579 294.028 217.734 295.599 224.395C298.826 238.073 307.488 247.743 312.501 260.32C316.351 270.299 317.908 281.038 317.053 291.72" fill="black"/>
<path d="M313.724 173.439C308.726 172.565 303.852 177.157 301.264 183.213C298.676 189.268 297.973 196.524 297.719 203.573C297.466 210.579 297.616 217.734 299.187 224.395C302.413 238.073 311.075 247.743 316.089 260.32C319.939 270.299 321.496 281.038 320.641 291.72" fill="#6C63FF"/>
<path d="M505.912 309.095L563.755 332.587L599.908 325.98L596.755 299.705L596.292 295.88L535.557 276.793L531.219 281.197L505.912 309.095Z" fill="#6C63FF"/>
<path opacity="0.1" d="M539.172 281.469V306.892L599.908 325.98L596.755 299.705L539.172 281.469Z" fill="black"/>
<path d="M483.262 314.585L487.356 316.124L536.175 334.482L539.969 335.908C540.088 335.954 540.216 335.97 540.343 335.954C540.47 335.939 540.591 335.894 540.697 335.821L545.167 332.777L591.673 301.097L596.067 298.106C596.194 298.02 596.294 297.898 596.356 297.757C596.417 297.615 596.438 297.458 596.416 297.305C596.393 297.151 596.329 297.007 596.229 296.89C596.129 296.772 595.999 296.686 595.853 296.641L588.847 294.462L539.6 279.144L535.301 277.805C535.186 277.768 535.064 277.759 534.945 277.777C534.825 277.795 534.711 277.84 534.611 277.909L531.224 280.227L487.348 310.228L483.095 313.137C482.972 313.221 482.874 313.338 482.812 313.475C482.75 313.612 482.726 313.763 482.743 313.913C482.761 314.063 482.818 314.205 482.91 314.323C483.001 314.442 483.123 314.532 483.262 314.585Z" fill="#7A799C"/>
<path d="M583.989 300.838L540.413 330.93C540.202 331.075 539.961 331.168 539.708 331.2C539.456 331.231 539.199 331.202 538.96 331.113L492.698 313.965C492.416 313.859 492.169 313.677 491.984 313.437C491.799 313.198 491.683 312.911 491.649 312.608C491.615 312.306 491.665 312 491.792 311.724C491.92 311.449 492.12 311.214 492.371 311.048L534.549 283.1C534.747 282.969 534.97 282.884 535.204 282.851C535.437 282.818 535.675 282.838 535.901 282.908L583.562 297.913C583.852 298.005 584.11 298.178 584.308 298.413C584.505 298.647 584.634 298.934 584.679 299.239C584.723 299.544 584.682 299.856 584.56 300.139C584.438 300.422 584.241 300.664 583.989 300.838Z" fill="#F2F2F2"/>
<path d="M588.847 294.462V301.097H591.673L596.067 298.106C596.194 298.019 596.294 297.898 596.356 297.756C596.417 297.615 596.438 297.458 596.416 297.305C596.393 297.151 596.329 297.007 596.229 296.89C596.129 296.772 595.999 296.686 595.853 296.641L588.847 294.462Z" fill="#6C63FF"/>
<path d="M536.174 332.404V334.482L539.969 335.908C540.088 335.954 540.216 335.97 540.343 335.954C540.47 335.939 540.591 335.894 540.697 335.821L545.167 332.777V332.404H536.174Z" fill="#6C63FF"/>
<path d="M483.262 314.585L487.356 316.124V310.228H487.347L483.095 313.137C482.972 313.221 482.874 313.338 482.812 313.475C482.75 313.612 482.726 313.763 482.743 313.913C482.761 314.063 482.818 314.204 482.91 314.323C483.001 314.442 483.123 314.532 483.262 314.585Z" fill="#6C63FF"/>
<path d="M531.224 280.227H539.6V279.144L535.301 277.805C535.186 277.768 535.064 277.759 534.944 277.777C534.825 277.795 534.711 277.84 534.611 277.909L531.224 280.227Z" fill="#6C63FF"/>
<path d="M512.908 295.059C513.238 295.059 513.506 294.787 513.506 294.452C513.506 294.117 513.238 293.845 512.908 293.845C512.577 293.845 512.31 294.117 512.31 294.452C512.31 294.787 512.577 295.059 512.908 295.059Z" fill="#F2F2F2"/>
<path d="M258.708 15.785H20.7298V138.423H258.708V15.785Z" fill="#F2F2F2"/>
<path d="M62.5004 127.191L116.399 35.8199L172.306 127.191" fill="#6C63FF"/>
<path d="M144.203 80.4431L154.966 51.9086L215.956 127.191H143.904L144.203 80.4431Z" fill="#6C63FF"/>
<path d="M132.872 69.1056C134.548 68.0648 136.005 66.6988 137.16 65.0858C138.316 63.4728 139.147 61.6444 139.606 59.7051C140.065 57.7658 140.143 55.7536 139.836 53.7836C139.529 51.8136 138.842 49.9244 137.815 48.224C136.788 46.5236 135.442 45.0454 133.852 43.8738C132.262 42.7022 130.461 41.8603 128.55 41.3961C126.64 40.9319 124.658 40.8545 122.718 41.1685C120.778 41.4824 118.918 42.1815 117.244 43.2257" fill="#6C63FF"/>
<path d="M272.759 0.303589H34.7813V122.941H272.759V0.303589Z" stroke="#3F3D56" stroke-miterlimit="10"/>
<path d="M65.49 122.941L119.389 31.5701L175.296 122.941" stroke="#3F3D56" stroke-miterlimit="10"/>
<path d="M145.997 74.979L156.76 46.4445L217.749 122.941" stroke="#3F3D56" stroke-miterlimit="10"/>
<path d="M137.057 60.606C138.733 59.5652 140.19 58.1992 141.346 56.5862C142.501 54.9732 143.332 53.1448 143.791 51.2055C144.251 49.2661 144.329 47.254 144.021 45.284C143.714 43.314 143.028 41.4248 142.001 39.7244C140.974 38.024 139.627 36.5458 138.037 35.3742C136.448 34.2026 134.646 33.3606 132.736 32.8964C130.825 32.4322 128.843 32.3549 126.903 32.6688C124.964 32.9828 123.104 33.6818 121.43 34.7261" stroke="#3F3D56" stroke-miterlimit="10"/>
</g>
<defs>
<clipPath id="clip0_16_119">
<rect width="602" height="369" fill="white"/>
</clipPath>
</defs>
</svg>
