<svg width="527" height="465" viewBox="0 0 527 465" fill="none" xmlns="http://www.w3.org/2000/svg">
<g clip-path="url(#clip0_20_378)">
<path d="M264.433 464.731C264.305 464.52 261.268 459.443 260.215 448.9C259.249 439.228 259.87 422.924 268.315 400.182C284.313 357.098 264.628 322.335 264.427 321.989L265.398 321.425C265.449 321.513 270.528 330.376 273.529 344.489C277.494 363.2 276.05 382.655 269.367 400.574C253.396 443.584 265.27 463.945 265.391 464.146L264.433 464.731Z" fill="#3F3D56"/>
<path d="M258.178 319.459C262.207 319.459 265.474 316.189 265.474 312.154C265.474 308.12 262.207 304.849 258.178 304.849C254.149 304.849 250.882 308.12 250.882 312.154C250.882 316.189 254.149 319.459 258.178 319.459Z" fill="#6C63FF"/>
<path d="M281.188 346.432C285.217 346.432 288.483 343.161 288.483 339.127C288.483 335.092 285.217 331.822 281.188 331.822C277.158 331.822 273.892 335.092 273.892 339.127C273.892 343.161 277.158 346.432 281.188 346.432Z" fill="#3F3D56"/>
<path d="M265.474 364.414C269.503 364.414 272.769 361.143 272.769 357.109C272.769 353.074 269.503 349.804 265.474 349.804C261.444 349.804 258.178 353.074 258.178 357.109C258.178 361.143 261.444 364.414 265.474 364.414Z" fill="#6C63FF"/>
<path d="M284.555 379.586C288.584 379.586 291.851 376.315 291.851 372.281C291.851 368.246 288.584 364.976 284.555 364.976C280.526 364.976 277.259 368.246 277.259 372.281C277.259 376.315 280.526 379.586 284.555 379.586Z" fill="#6C63FF"/>
<path d="M259.861 403.187C263.891 403.187 267.157 399.917 267.157 395.882C267.157 391.848 263.891 388.577 259.861 388.577C255.832 388.577 252.566 391.848 252.566 395.882C252.566 399.917 255.832 403.187 259.861 403.187Z" fill="#3F3D56"/>
<path d="M268.841 465C268.841 465 261.545 447.018 283.433 433.532L268.841 465Z" fill="#3F3D56"/>
<path d="M259.868 464.674C259.868 464.674 256.548 445.552 230.849 445.715L259.868 464.674Z" fill="#3F3D56"/>
<path d="M92.6193 257.107H91.4968V398.107H92.6193V257.107Z" fill="#3F3D56"/>
<path d="M126.853 235.411H125.731V419.804H126.853V235.411Z" fill="#3F3D56"/>
<path d="M161.088 229.269H159.965V425.946H161.088V229.269Z" fill="#3F3D56"/>
<path d="M195.322 235.411H194.199V419.804H195.322V235.411Z" fill="#3F3D56"/>
<path d="M229.556 257.107H228.433V398.107H229.556V257.107Z" fill="#3F3D56"/>
<path d="M247.009 280.405H74.043V281.529H247.009V280.405Z" fill="#3F3D56"/>
<path d="M258.739 327.045H62.3137V328.169H258.739V327.045Z" fill="#3F3D56"/>
<path d="M247.009 373.686H74.043V374.81H247.009V373.686Z" fill="#3F3D56"/>
<path d="M428.787 281.529C483.029 281.529 527 237.501 527 183.19C527 128.88 483.029 84.852 428.787 84.852C374.546 84.852 330.575 128.88 330.575 183.19C330.575 237.501 374.546 281.529 428.787 281.529Z" fill="#6C63FF"/>
<path d="M262.668 163.826H261.545V304.826H262.668V163.826Z" fill="#3F3D56"/>
<path d="M296.902 142.13H295.779V326.523H296.902V142.13Z" fill="#3F3D56"/>
<path d="M331.136 135.988H330.013V332.665H331.136V135.988Z" fill="#3F3D56"/>
<path d="M365.37 142.13H364.248V326.523H365.37V142.13Z" fill="#3F3D56"/>
<path d="M399.604 163.826H398.482V304.826H399.604V163.826Z" fill="#3F3D56"/>
<path d="M417.058 187.124H244.091V188.248H417.058V187.124Z" fill="#3F3D56"/>
<path d="M428.787 233.764H232.362V234.888H428.787V233.764Z" fill="#3F3D56"/>
<path d="M417.058 280.405H244.091V281.529H417.058V280.405Z" fill="#3F3D56"/>
<path d="M406.488 18.5877H406.488C379.471 18.5877 357.57 42.9244 357.57 72.9452V111.087H369.286L376.068 96.9552L374.373 111.087H449.676L455.843 98.2399L454.301 111.087H462.779V81.1389C462.779 46.5928 437.577 18.5877 406.488 18.5877Z" fill="#2F2E41"/>
<path d="M382.875 87.141C382.875 87.141 398.143 122.813 377.786 129.947L398.143 197.214L432.752 195.175L441.913 172.753L439.877 139.12L436.823 116.698C436.823 116.698 415.448 121.794 417.483 84.0834L382.875 87.141Z" fill="#FFB8B8"/>
<path d="M374.732 128.928C374.732 128.928 341.142 125.87 344.195 150.331C347.249 174.792 350.303 179.887 350.303 179.887L353.356 216.578L335.034 227.79H317.73C317.73 227.79 264.8 240.02 291.265 253.269C317.73 266.519 326.891 243.077 326.891 243.077C326.891 243.077 375.75 243.077 378.804 234.924C381.857 226.77 374.732 128.928 374.732 128.928Z" fill="#FFB8B8"/>
<path d="M439.877 118.736C439.877 118.736 471.432 107.525 473.467 131.985C475.503 156.446 475.503 158.484 475.503 158.484L481.61 193.137C481.61 193.137 493.825 223.713 493.825 232.886C493.825 242.058 502.986 270.596 502.986 270.596C502.986 270.596 515.201 310.344 501.968 309.325C488.736 308.306 486.7 266.519 486.7 266.519L459.217 211.482L451.074 177.849L439.877 118.736Z" fill="#FFB8B8"/>
<path d="M379.821 124.851H371.678L370.66 167.657C370.66 167.657 357.428 186.003 373.714 202.31L377.786 228.809L452.092 225.751L457.181 198.233C457.181 198.233 467.36 175.811 453.109 155.427L439.877 113.64H432.752C432.752 113.64 449.254 174.565 414.43 175.811C385.929 176.83 379.821 124.851 379.821 124.851Z" fill="white"/>
<path d="M498.025 377.945C475.074 403.798 447.128 424.725 415.874 439.46C415.863 388.459 416.463 347.033 416.463 347.033C416.463 347.033 412.142 390.808 406.653 443.579C375.297 456.833 341.6 463.64 307.565 463.595C306.959 463.595 306.353 463.595 305.747 463.584C333.751 362.829 374.602 247.352 375.73 244.166C375.739 244.144 375.746 244.121 375.753 244.098L378.216 235.872L379.266 232.371L380.366 228.701L381.859 223.711L448.02 221.677L449.872 225.841L456.163 240.019C456.713 240.178 457.233 240.423 457.707 240.744C469.616 248.571 484.628 308.316 498.025 377.945Z" fill="#2F2E41"/>
<path d="M455.145 213.521L374.732 216.578C374.732 216.578 371.062 244.097 374.732 244.097C375.75 244.097 459.217 251.231 458.199 239.001C457.181 226.77 455.145 213.521 455.145 213.521Z" fill="#3F3D56"/>
<path d="M398.607 98.8141C414.403 98.8141 427.208 85.9929 427.208 70.1771C427.208 54.3613 414.403 41.5401 398.607 41.5401C382.812 41.5401 370.007 54.3613 370.007 70.1771C370.007 85.9929 382.812 98.8141 398.607 98.8141Z" fill="#FFB8B8"/>
<path d="M420.394 33.5614C415.483 27.2291 408.238 23.2182 400.152 23.2182H399.191C380.674 23.2182 365.663 39.9956 365.663 60.6916V60.6917H371.867L372.869 53.0548L374.339 60.6917H411.138L414.221 54.2307L413.45 60.6917H420.69C424.068 77.4902 419.214 94.2886 406.128 111.087H418.46L424.626 98.1652L423.085 111.087H446.593L451.218 81.3666C451.218 59.1088 438.302 40.2346 420.394 33.5614Z" fill="#2F2E41"/>
<path d="M427.153 36.6909C437.272 36.6909 445.475 28.4774 445.475 18.3455C445.475 8.21355 437.272 0 427.153 0C417.034 0 408.831 8.21355 408.831 18.3455C408.831 28.4774 417.034 36.6909 427.153 36.6909Z" fill="#2F2E41"/>
<path d="M293.302 243.482C298.39 243.482 302.514 239.353 302.514 234.259C302.514 229.165 298.39 225.035 293.302 225.035C288.215 225.035 284.091 229.165 284.091 234.259C284.091 239.353 288.215 243.482 293.302 243.482Z" fill="#6C63FF"/>
<path d="M293.302 234.259H92.49V153.093H259.527L293.302 234.259Z" fill="#EFEFEF"/>
<path d="M294.22 234.874H67.9258V135.261H253.182L253.339 135.642L294.22 234.874ZM69.154 233.644H292.385L252.36 136.491H69.154V233.644Z" fill="#3F3D56"/>
<path d="M225.751 166.006H125.652V175.229H225.751V166.006Z" fill="#3F3D56"/>
<path d="M225.751 185.067H125.652V194.291H225.751V185.067Z" fill="#3F3D56"/>
<path d="M225.751 204.129H125.652V213.352H225.751V204.129Z" fill="#3F3D56"/>
<path d="M6.73459 329.488C5.40261 329.488 4.10055 329.092 2.99305 328.351C1.88556 327.61 1.02237 326.557 0.512646 325.325C0.00292118 324.093 -0.13045 322.737 0.129405 321.429C0.389261 320.121 1.03067 318.919 1.97252 317.976C2.91437 317.033 4.11436 316.391 5.42074 316.131C6.72712 315.871 8.08122 316.004 9.31181 316.514C10.5424 317.025 11.5942 317.889 12.3342 318.998C13.0742 320.107 13.4692 321.411 13.4692 322.744C13.4671 324.532 12.7569 326.246 11.4944 327.51C10.2319 328.774 8.52008 329.486 6.73459 329.488ZM6.73459 317.125C5.62461 317.125 4.53956 317.455 3.61665 318.072C2.69373 318.69 1.97441 319.567 1.54964 320.594C1.12487 321.621 1.01373 322.751 1.23027 323.841C1.44682 324.931 1.98133 325.932 2.7662 326.718C3.55107 327.504 4.55106 328.039 5.63971 328.256C6.72837 328.473 7.85678 328.361 8.88227 327.936C9.90776 327.511 10.7843 326.79 11.4009 325.866C12.0176 324.942 12.3467 323.856 12.3467 322.744C12.3451 321.255 11.7533 319.826 10.7012 318.773C9.64903 317.719 8.22252 317.127 6.73459 317.125Z" fill="#2F2E41"/>
<path d="M243.471 75.6565H232.392V64.5633H243.471V75.6565ZM233.244 74.8032H242.618V65.4166H233.244V74.8032Z" fill="#3F3D56"/>
<path d="M33.9374 77.9492L26.3806 69.837L34.4824 62.2706L42.0393 70.3827L33.9374 77.9492ZM27.5852 69.879L33.9794 76.7432L40.8348 70.3408L34.4405 63.4766L27.5852 69.879Z" fill="#2F2E41"/>
</g>
<defs>
<clipPath id="clip0_20_378">
<rect width="527" height="465" fill="white"/>
</clipPath>
</defs>
</svg>
