<svg width="72" height="72" viewBox="0 0 72 72" fill="none" xmlns="http://www.w3.org/2000/svg">
<path d="M58.899 23.991C58.938 24.516 58.938 25.038 58.938 25.56C58.938 41.535 46.779 59.943 24.558 59.943C17.712 59.943 11.352 57.96 6 54.516C6.972 54.627 7.908 54.666 8.919 54.666C14.358 54.6792 19.6429 52.8604 23.922 49.503C21.4003 49.4574 18.9557 48.6254 16.9297 47.1232C14.9037 45.6211 13.3974 43.5237 12.621 41.124C13.368 41.235 14.118 41.31 14.904 41.31C15.987 41.31 17.076 41.16 18.087 40.899C15.3503 40.3465 12.8894 38.8631 11.1229 36.7011C9.35629 34.5391 8.39308 31.832 8.397 29.04V28.89C10.008 29.787 11.877 30.348 13.857 30.423C12.1983 29.3208 10.8382 27.8251 9.89802 26.0694C8.95788 24.3137 8.46694 22.3526 8.469 20.361C8.469 18.117 9.066 16.059 10.113 14.265C13.1494 18.0001 16.9365 21.0557 21.229 23.234C25.5215 25.4123 30.2237 26.6647 35.031 26.91C34.845 26.01 34.731 25.077 34.731 24.141C34.7302 22.5539 35.0422 20.9822 35.6492 19.5157C36.2562 18.0493 37.1463 16.7168 38.2686 15.5946C39.3908 14.4723 40.7233 13.5822 42.1897 12.9752C43.6562 12.3682 45.2279 12.0562 46.815 12.057C50.295 12.057 53.436 13.515 55.644 15.873C58.3493 15.3499 60.9436 14.3623 63.312 12.954C62.4102 15.7465 60.5213 18.1143 57.999 19.614C60.3984 19.3403 62.7433 18.7094 64.956 17.742C63.3034 20.1513 61.2556 22.264 58.899 23.991Z" fill="#E8E8C1"/>
</svg>
