<svg width="72" height="72" viewBox="0 0 72 72" fill="none" xmlns="http://www.w3.org/2000/svg">
<path fill-rule="evenodd" clip-rule="evenodd" d="M55.209 16.899C52.7141 14.3876 49.7456 12.3963 46.4756 11.0404C43.2056 9.68451 39.699 8.99097 36.159 8.99996C21.315 8.99996 9.231 21.081 9.225 35.931C9.225 40.677 10.464 45.309 12.819 49.395L9 63.348L23.277 59.601C27.2262 61.7508 31.6506 62.878 36.147 62.88H36.159C51 62.88 63.084 50.799 63.09 35.949C63.1002 32.4104 62.409 28.9049 61.0562 25.6351C59.7035 22.3653 57.7162 19.3961 55.209 16.899ZM36.159 58.335H36.15C32.1406 58.3354 28.2049 57.2567 24.756 55.212L23.94 54.726L15.468 56.949L17.727 48.69L17.196 47.844C14.9544 44.2752 13.7677 40.1453 13.773 35.931C13.779 23.589 23.82 13.548 36.168 13.548C39.1088 13.5414 42.0216 14.1182 44.738 15.2449C47.4543 16.3716 49.9202 18.0259 51.993 20.112C54.0769 22.1881 55.7286 24.6566 56.8527 27.375C57.9768 30.0933 58.5509 33.0074 58.542 35.949C58.536 48.291 48.495 58.335 36.159 58.335ZM48.438 41.568C47.763 41.229 44.457 39.603 43.839 39.378C43.224 39.153 42.777 39.042 42.327 39.714C41.877 40.386 40.587 41.901 40.194 42.351C39.801 42.801 39.408 42.855 38.736 42.519C38.064 42.183 35.895 41.472 33.324 39.18C31.323 37.395 29.973 35.193 29.58 34.518C29.187 33.843 29.538 33.48 29.877 33.144C30.18 32.844 30.549 32.358 30.885 31.965C31.221 31.572 31.332 31.293 31.557 30.843C31.782 30.393 31.671 30 31.5 29.664C31.332 29.325 29.985 26.013 29.424 24.666C28.881 23.361 28.326 23.535 27.912 23.517C27.4832 23.4994 27.0541 23.4914 26.625 23.493C26.2838 23.5017 25.948 23.5808 25.6388 23.7253C25.3296 23.8699 25.0535 24.0767 24.828 24.333C24.21 25.008 22.473 26.634 22.473 29.946C22.473 33.258 24.885 36.459 25.221 36.909C25.557 37.359 29.967 44.154 36.717 47.07C38.325 47.763 39.579 48.177 40.554 48.489C42.165 49.002 43.632 48.927 44.793 48.756C46.086 48.564 48.774 47.13 49.335 45.558C49.896 43.986 49.896 42.639 49.728 42.357C49.56 42.075 49.107 41.904 48.438 41.568Z" fill="#E8E8C1"/>
</svg>
