<svg width="639" height="320" viewBox="0 0 639 320" fill="none" xmlns="http://www.w3.org/2000/svg">
<g clip-path="url(#clip0_23_505)">
<path d="M210.436 320C191.154 320 171.902 319.655 152.678 318.966C125.21 317.98 96.8061 316.961 70.406 302.334C51.938 292.103 35.5817 275.687 23.1059 254.861C14.7673 240.745 8.65301 225.432 4.9779 209.458C-1.8776 180.375 -1.64409 150.074 5.65878 121.1C8.21799 111.166 11.746 101.507 16.1923 92.2605C35.4448 52.4331 70.5599 25.6981 112.534 18.9111C112.881 18.8661 113.231 18.8586 113.58 18.8888C113.768 18.8989 113.957 18.9097 114.148 18.9017L114.395 18.8232C115.028 18.6034 115.679 18.4367 116.34 18.3248C181.075 8.69742 249.51 28.177 314.24 74.6561C364.29 110.599 430.62 129.953 517.021 133.825L518.247 133.89C542.299 135.27 565.565 145.176 585.531 162.538C605.238 179.674 620.035 202.537 628.322 228.656C629.341 231.841 630.275 235.155 631.098 238.508C631.864 241.623 631.81 244.884 630.94 247.972C630.071 251.061 628.417 253.872 626.138 256.133V256.139L625.923 256.36C625.405 256.874 624.86 257.368 624.302 257.827L623.647 258.367C618.126 262.911 613.765 266.5 608.545 269.288C605.064 271.134 601.362 272.531 597.528 273.443C576.473 278.571 555.091 283.325 533.977 287.575C492.972 295.834 450.886 302.648 408.889 307.825C343.05 315.935 276.774 320.001 210.436 320V320ZM113.089 20.2994C112.96 20.2981 112.831 20.3069 112.703 20.3255C71.1215 27.0491 36.3387 53.5216 17.2771 92.9548C12.8747 102.109 9.3816 111.673 6.84784 121.508C-0.388483 150.225 -0.619084 180.258 6.17543 209.082C9.81456 224.903 15.8695 240.07 24.1277 254.051C36.4814 274.673 52.6704 290.924 70.9448 301.047C97.1079 315.543 125.378 316.558 152.717 317.538C238.224 320.59 323.838 316.868 408.757 306.406C450.726 301.231 492.785 294.423 533.763 286.168C554.863 281.922 576.23 277.171 597.27 272.046C601.012 271.157 604.625 269.794 608.022 267.992C613.137 265.261 617.456 261.706 622.925 257.205L623.58 256.667C624.059 256.271 624.529 255.849 624.979 255.41L625.108 255.274C629.602 250.75 631.35 244.78 629.903 238.896V238.895C629.089 235.578 628.165 232.299 627.156 229.148C610.228 175.791 566.437 138.084 518.188 135.316L516.968 135.252C477.501 133.482 442.965 128.582 411.39 120.268C373.696 110.344 340.79 95.4051 313.583 75.867C249.099 29.566 180.95 10.1589 116.498 19.7406C115.896 19.8444 115.303 19.9978 114.727 20.1993L114.281 20.3237C114.029 20.335 113.775 20.332 113.523 20.3147C113.374 20.307 113.23 20.2994 113.089 20.2994H113.089Z" fill="#6DDD5B"/>
<path d="M199.597 104.26C197.812 102.549 195.987 93.0087 193.708 92.0401C195.411 95.8011 194.174 96.7968 194.165 100.924C194.187 103.268 193.913 105.605 193.35 107.88H154.746V77.7838C154.746 75.0796 155.279 72.4018 156.315 69.9034C157.351 67.4049 158.869 65.1348 160.783 63.2226C162.698 61.3104 164.97 59.7936 167.471 58.7587C169.972 57.7239 172.653 57.1913 175.36 57.1914C176.393 57.2115 177.419 57.3617 178.415 57.6382C181.733 58.5332 184.757 60.284 187.184 62.7152C189.611 65.1463 191.355 68.1722 192.242 71.4894C195.185 82.2352 199.866 100.122 199.597 104.26Z" fill="#2F2E41"/>
<path d="M157.011 141.284L157.03 117.826L143.226 119.058L148.098 133.853L145.818 171.042C144.712 171.29 143.703 171.854 142.912 172.665C142.122 173.476 141.584 174.5 141.366 175.61C141.148 176.721 141.258 177.872 141.683 178.921C142.108 179.971 142.829 180.874 143.759 181.521C144.689 182.168 145.787 182.531 146.92 182.566C148.053 182.6 149.171 182.304 150.139 181.714C151.106 181.125 151.881 180.267 152.368 179.245C152.856 178.223 153.036 177.081 152.885 175.959L157.011 141.284Z" fill="#FFB6B6"/>
<path d="M184.177 308.92L189.753 308.919L192.406 287.431H184.175L184.177 308.92Z" fill="#FFB6B6"/>
<path d="M182.288 306.171L191.103 305.646V309.419L199.485 315.201C199.899 315.487 200.211 315.897 200.375 316.372C200.539 316.847 200.546 317.362 200.397 317.842C200.247 318.322 199.948 318.741 199.542 319.039C199.137 319.337 198.647 319.498 198.144 319.498H187.649L185.84 315.765L185.133 319.498H181.176L182.288 306.171Z" fill="#2F2E41"/>
<path d="M151.931 308.92L157.508 308.919L160.161 287.431H151.93L151.931 308.92Z" fill="#FFB6B6"/>
<path d="M150.043 306.171L158.858 305.646V309.419L167.24 315.201C167.654 315.487 167.965 315.897 168.129 316.372C168.294 316.847 168.301 317.362 168.152 317.842C168.002 318.322 167.703 318.741 167.297 319.039C166.892 319.337 166.402 319.498 165.899 319.498H155.404L153.595 315.765L152.888 319.498H148.931L150.043 306.171Z" fill="#2F2E41"/>
<path d="M179.211 92.4927L167.658 92.719L159.503 101.318L152.965 102.276C150.008 102.709 147.289 104.143 145.263 106.339C143.237 108.534 142.027 111.358 141.834 114.338L142.967 120.553H149.763L153.694 143.612C152.165 147.503 152.061 150.574 155.199 151.781L164.94 170.11L193.708 157.212C195.167 154.706 195.634 152.189 194.143 149.742L196.2 114.443H203.115C203.115 107.841 200.879 102.275 194.312 101.54C191.703 101.258 189.083 101.109 186.459 101.092L179.211 92.4927Z" fill="#55BA45"/>
<path d="M193.708 157.212C193.708 157.212 165.619 162.19 155.199 151.781C155.199 151.781 154.141 153.575 152.547 156.55C152.089 157.406 151.203 157.986 150.669 159.022C150.183 159.964 148.933 161.122 148.404 162.191C147.978 163.05 148.661 164.173 148.218 165.102C142.881 176.283 136.647 192.055 137.984 202.47C138.846 209.186 140.626 224.814 142.501 241.6C142.647 242.911 141.461 244.596 141.608 245.918C141.747 247.164 143.219 248.048 143.358 249.297C143.45 250.127 142.422 250.973 142.514 251.801C142.615 252.71 143.836 253.601 143.936 254.507C146.505 277.684 148.857 299.322 148.857 299.322H161.995L164.474 249.902L162.448 231.888L167.205 195.455L173.774 230.077L174.619 249.563L181.561 300.227H193.708V251.181L194.614 248.633L193.708 245.365L194.614 241.844L193.708 238.01V157.212Z" fill="#2F2E41"/>
<path d="M182.756 85.8001C180.967 88.1749 178.421 89.8701 175.538 90.6064C172.655 91.3427 169.608 91.0763 166.897 89.8511C164.186 88.6259 161.973 86.5148 160.624 83.8657C159.274 81.2165 158.868 78.1872 159.472 75.2766C160.076 72.3661 161.654 69.7478 163.947 67.853C166.239 65.9582 169.11 64.8998 172.085 64.8523C175.06 64.8047 177.963 65.7707 180.315 67.5913C182.667 69.4118 184.328 71.9784 185.025 74.8681C185.063 75.0249 185.095 75.1808 185.126 75.3427C185.494 77.154 185.473 79.0227 185.064 80.8254C184.656 82.6281 183.869 84.3237 182.756 85.8001V85.8001Z" fill="#FFB6B6"/>
<path d="M180.026 78.336C179.748 76.9432 179.045 75.6705 178.014 74.6927C178.116 76.0274 177.931 77.3684 177.47 78.6256C174.026 78.9303 170.567 78.2457 167.499 76.6524C165.189 75.0865 162.248 75.2222 158.823 76.6524C158.823 74.9882 159.151 73.3402 159.788 71.8027C160.426 70.2651 161.36 68.868 162.538 67.6913C163.716 66.5145 165.115 65.5811 166.654 64.9443C168.193 64.3075 169.843 63.9799 171.508 63.9801H173.774C177.138 63.9807 180.364 65.316 182.743 67.6924C185.122 70.0688 186.458 73.2917 186.459 76.6524C184.368 77.4015 182.215 77.9648 180.026 78.336V78.336Z" fill="#2F2E41"/>
<path d="M80.9238 239.849C101.051 239.849 117.367 223.55 117.367 203.443C117.367 183.337 101.051 167.038 80.9238 167.038C60.797 167.038 44.481 183.337 44.481 203.443C44.481 223.55 60.797 239.849 80.9238 239.849Z" fill="#6DDD5B"/>
<path d="M313.158 72.8113C333.285 72.8113 349.601 56.5119 349.601 36.4056C349.601 16.2994 333.285 0 313.158 0C293.031 0 276.715 16.2994 276.715 36.4056C276.715 56.5119 293.031 72.8113 313.158 72.8113Z" fill="#6DDD5B"/>
<path d="M602.557 245.56C622.684 245.56 639 229.26 639 209.154C639 189.048 622.684 172.748 602.557 172.748C582.43 172.748 566.114 189.048 566.114 209.154C566.114 229.26 582.43 245.56 602.557 245.56Z" fill="#6DDD5B"/>
<path d="M378.898 40.3758V122.928C378.898 124.643 378.221 126.288 377.014 127.507C375.806 128.726 374.166 129.42 372.45 129.438C372.426 129.44 372.402 129.441 372.379 129.441H362.761C355.065 129.441 347.685 126.387 342.243 120.951C336.802 115.515 333.745 108.142 333.745 100.454V40.3758C333.745 38.6486 334.431 36.9921 335.654 35.7707C336.877 34.5494 338.535 33.8632 340.264 33.8632H344.161C342.356 39.1247 366.86 41.3398 368.205 33.8632H372.379C374.108 33.8632 375.766 34.5494 376.988 35.7707C378.211 36.9921 378.898 38.6486 378.898 40.3758V40.3758Z" fill="#6C63FF"/>
<path d="M350.356 27.6902C350.356 27.464 350.446 27.247 350.606 27.087C350.767 26.927 350.984 26.837 351.21 26.8367H357.02C357.246 26.8374 357.463 26.9276 357.623 27.0876C357.782 27.2476 357.872 27.4643 357.872 27.6902C357.872 27.9162 357.782 28.1329 357.623 28.2929C357.463 28.4529 357.246 28.5431 357.02 28.5437H351.21C350.984 28.5435 350.767 28.4535 350.606 28.2935C350.446 28.1335 350.356 27.9165 350.356 27.6902V27.6902Z" fill="#3F3D56"/>
<path d="M374.375 139.912H337.635C334.784 139.909 332.051 138.776 330.036 136.763C328.02 134.749 326.886 132.019 326.883 129.172V71.4641C326.681 71.3194 326.517 71.1287 326.404 70.9079C326.291 70.6871 326.232 70.4425 326.232 70.1944V64.3906C326.232 64.1425 326.291 63.898 326.404 63.6772C326.517 63.4564 326.681 63.2658 326.883 63.1212V61.5635C326.681 61.4188 326.517 61.2282 326.404 61.0074C326.291 60.7867 326.232 60.5421 326.232 60.2941V54.49C326.232 54.2419 326.291 53.9973 326.404 53.7766C326.517 53.5558 326.681 53.3652 326.883 53.2205V50.4053C326.634 50.2716 326.426 50.0729 326.281 49.8302C326.136 49.5876 326.06 49.3102 326.061 49.0278V43.224C326.06 42.9415 326.136 42.6641 326.281 42.4214C326.426 42.1788 326.634 41.9799 326.883 41.8462V34.132C326.886 31.2845 328.02 28.5545 330.036 26.541C332.051 24.5275 334.784 23.395 337.635 23.3918H374.375C377.225 23.395 379.958 24.5276 381.974 26.5411C383.989 28.5546 385.123 31.2845 385.126 34.1321V50.9473C385.32 51.0683 385.479 51.2364 385.59 51.436C385.701 51.6355 385.759 51.8599 385.759 52.0881V63.1546C385.759 63.3828 385.701 63.6073 385.59 63.8069C385.479 64.0065 385.32 64.1747 385.126 64.2958V129.172C385.123 132.019 383.989 134.749 381.974 136.763C379.958 138.776 377.225 139.909 374.375 139.912V139.912ZM337.635 24.8194C335.163 24.8222 332.794 25.8042 331.046 27.5501C329.298 29.2959 328.315 31.663 328.312 34.1321V43.0606L327.625 43.0871C327.589 43.0884 327.555 43.1033 327.53 43.1288C327.505 43.1542 327.491 43.1884 327.49 43.2241V49.0278C327.491 49.0634 327.505 49.0975 327.53 49.123C327.555 49.1484 327.589 49.1634 327.625 49.1648L328.312 49.1909V54.2229L327.769 54.3568C327.738 54.364 327.712 54.381 327.692 54.4051C327.673 54.4292 327.662 54.459 327.661 54.4899V60.294C327.662 60.325 327.673 60.3548 327.692 60.3789C327.712 60.403 327.738 60.4199 327.769 60.4272L328.312 60.561V64.1236L327.769 64.2574C327.738 64.2647 327.712 64.2817 327.692 64.3058C327.673 64.3298 327.662 64.3597 327.661 64.3906V70.1943C327.662 70.2253 327.673 70.2552 327.692 70.2793C327.712 70.3035 327.738 70.3205 327.769 70.3278L328.312 70.4617V129.172C328.315 131.641 329.298 134.008 331.046 135.754C332.794 137.499 335.163 138.481 337.635 138.484H374.375C376.846 138.481 379.216 137.499 380.963 135.753C382.711 134.008 383.694 131.641 383.697 129.172V63.0734H384.33V52.1697H383.697V34.132C383.694 31.663 382.711 29.296 380.963 27.5501C379.216 25.8043 376.846 24.8222 374.375 24.8194L337.635 24.8194Z" fill="#3F3D56"/>
<path d="M360.267 28.5437C360.739 28.5437 361.121 28.1616 361.121 27.6902C361.121 27.2189 360.739 26.8367 360.267 26.8367C359.795 26.8367 359.413 27.2189 359.413 27.6902C359.413 28.1616 359.795 28.5437 360.267 28.5437Z" fill="#3F3D56"/>
<path d="M174.412 193.023H78.8119C77.4542 193.02 76.1532 192.48 75.1932 191.521C74.2331 190.562 73.6921 189.262 73.6885 187.906V141.372C73.692 140.015 74.2328 138.716 75.1927 137.757C76.1526 136.798 77.4535 136.257 78.8112 136.253H174.411C175.768 136.257 177.069 136.797 178.03 137.756C178.99 138.715 179.531 140.015 179.534 141.371V187.905C179.531 189.261 178.99 190.561 178.03 191.52C177.07 192.479 175.769 193.02 174.412 193.023Z" fill="white"/>
<path d="M174.412 193.023H78.8119C77.4542 193.02 76.1532 192.48 75.1932 191.521C74.2331 190.562 73.6921 189.262 73.6885 187.906V141.372C73.692 140.015 74.2328 138.716 75.1927 137.757C76.1526 136.798 77.4535 136.257 78.8112 136.253H174.411C175.768 136.257 177.069 136.797 178.03 137.756C178.99 138.715 179.531 140.015 179.534 141.371V187.905C179.531 189.261 178.99 190.561 178.03 191.52C177.07 192.479 175.769 193.02 174.412 193.023ZM78.8119 137.681C77.8329 137.684 76.8948 138.074 76.2026 138.765C75.5104 139.457 75.1203 140.394 75.1176 141.372V187.905C75.1204 188.883 75.5107 189.82 76.203 190.512C76.8953 191.203 77.8335 191.593 78.8126 191.596H174.41C175.389 191.593 176.328 191.203 177.02 190.512C177.712 189.82 178.102 188.883 178.105 187.904V141.372C178.102 140.394 177.712 139.456 177.02 138.765C176.327 138.073 175.389 137.684 174.41 137.681L78.8119 137.681Z" fill="#3F3D56"/>
<path d="M131.735 186.146C112.881 186.146 93.2211 185.966 85.8857 185.85C84.9206 185.83 84.0015 185.434 83.3247 184.746C82.6479 184.059 82.2669 183.134 82.2632 182.17V143.65C82.2636 143.305 82.4008 142.973 82.6449 142.729C82.8891 142.484 83.2202 142.347 83.5658 142.345H169.654C169.999 142.346 170.331 142.483 170.575 142.727C170.82 142.97 170.958 143.301 170.959 143.646V169.781C170.943 174.048 169.254 178.137 166.254 181.174C163.254 184.21 159.182 185.951 154.912 186.023C148.076 186.112 139.981 186.146 131.735 186.146Z" fill="#6C63FF"/>
<path d="M164.544 167.38H86.7565C86.1052 167.378 85.4702 167.176 84.9378 166.801C84.4055 166.427 84.0016 165.897 83.781 165.285L74.9767 140.61C74.807 140.134 74.7541 139.625 74.8225 139.124C74.8908 138.623 75.0784 138.147 75.3695 137.733C75.6606 137.32 76.0466 136.983 76.4952 136.75C76.9439 136.517 77.4419 136.395 77.9476 136.394L175.18 136.258C175.642 136.258 176.099 136.359 176.518 136.554C176.937 136.749 177.308 137.033 177.605 137.387C177.902 137.741 178.118 138.155 178.237 138.601C178.356 139.047 178.376 139.514 178.295 139.969L178.37 140L178.091 140.651L178.088 140.658L167.445 165.467C167.202 166.035 166.798 166.52 166.282 166.86C165.766 167.2 165.162 167.381 164.544 167.38V167.38ZM175.185 137.686L77.9504 137.821C77.6734 137.822 77.4005 137.889 77.1547 138.016C76.909 138.144 76.6975 138.329 76.538 138.555C76.3785 138.781 76.2758 139.043 76.2383 139.317C76.2008 139.591 76.2298 139.87 76.3227 140.131L85.1268 164.804C85.2478 165.14 85.4692 165.43 85.7609 165.635C86.0527 165.841 86.4006 165.952 86.7576 165.953H164.544C164.882 165.953 165.213 165.854 165.495 165.668C165.777 165.481 165.999 165.216 166.131 164.906L176.775 140.095L177.298 140.319L176.775 140.095C176.888 139.832 176.934 139.546 176.908 139.261C176.883 138.976 176.787 138.702 176.629 138.463C176.472 138.224 176.257 138.028 176.005 137.893C175.753 137.757 175.471 137.686 175.185 137.686V137.686Z" fill="#3F3D56"/>
<path d="M126.466 172.751C129.83 172.751 132.557 170.027 132.557 166.667C132.557 163.306 129.83 160.582 126.466 160.582C123.102 160.582 120.375 163.306 120.375 166.667C120.375 170.027 123.102 172.751 126.466 172.751Z" fill="white"/>
<path d="M356.556 119.927C359.92 119.927 362.647 117.203 362.647 113.843C362.647 110.482 359.92 107.758 356.556 107.758C353.192 107.758 350.465 110.482 350.465 113.843C350.465 117.203 353.192 119.927 356.556 119.927Z" fill="white"/>
<path d="M586.93 202.101L570.659 186.054C569.867 185.267 568.927 184.643 567.894 184.22C566.86 183.796 565.753 183.58 564.635 183.584H564.578C563.452 183.588 562.338 183.814 561.301 184.25C560.263 184.686 559.322 185.324 558.533 186.126C554.895 189.804 552.826 194.747 552.76 199.918C552.695 205.088 554.639 210.082 558.183 213.851C558.354 214.037 558.533 214.215 558.712 214.394C559.701 215.376 560.794 216.25 561.97 216.999C565.187 219.075 568.937 220.174 572.767 220.161H572.889C575.517 220.152 578.118 219.623 580.54 218.603C582.963 217.584 585.159 216.095 587.001 214.222C588.598 212.604 589.487 210.419 589.474 208.147C589.46 205.875 588.545 203.701 586.93 202.101V202.101ZM585.987 213.216C582.966 216.256 578.988 218.163 574.724 218.615C570.46 219.068 566.17 218.038 562.577 215.7C561.55 215.02 560.59 214.244 559.712 213.38C556.206 209.921 554.219 205.212 554.188 200.29C554.158 195.368 556.085 190.635 559.548 187.132C560.206 186.462 560.991 185.93 561.857 185.566C562.723 185.202 563.653 185.014 564.592 185.012H564.635C565.566 185.009 566.487 185.189 567.348 185.541C568.209 185.894 568.992 186.413 569.652 187.068L585.922 203.122C587.269 204.453 588.032 206.263 588.045 208.156C588.057 210.048 587.316 211.868 585.987 213.216V213.216Z" fill="#3F3D56"/>
<path d="M533.544 149.434L517.273 133.38C515.672 131.793 513.506 130.905 511.25 130.91H511.2C510.072 130.915 508.957 131.142 507.918 131.58C506.879 132.017 505.938 132.656 505.147 133.459C502.14 136.51 500.189 140.444 499.583 144.683C498.976 148.922 499.744 153.244 501.774 157.015L501.782 157.022C502.619 158.565 503.66 159.989 504.876 161.256C505.011 161.413 505.169 161.57 505.326 161.727C509.062 165.432 514.117 167.506 519.381 167.494H519.51C522.139 167.483 524.74 166.952 527.162 165.932C529.584 164.911 531.78 163.421 533.623 161.548C534.414 160.748 535.039 159.799 535.464 158.757C535.888 157.715 536.102 156.6 536.095 155.475C536.088 154.35 535.859 153.238 535.421 152.201C534.983 151.165 534.346 150.225 533.544 149.434V149.434ZM532.601 160.549C530.891 162.287 528.852 163.67 526.604 164.617C524.356 165.564 521.943 166.057 519.503 166.067H519.381C515.717 166.065 512.135 164.982 509.086 162.952C506.037 160.922 503.657 158.037 502.245 154.66C500.833 151.282 500.452 147.563 501.15 143.97C501.848 140.376 503.594 137.07 506.169 134.465C507.501 133.12 509.313 132.357 511.208 132.345C513.102 132.333 514.924 133.073 516.273 134.401L532.544 150.448C533.89 151.781 534.652 153.593 534.662 155.487C534.673 157.38 533.932 159.201 532.601 160.549L532.601 160.549Z" fill="#3F3D56"/>
<path d="M587.969 207.146L570.032 189.448C568.855 188.29 567.267 187.645 565.616 187.656C563.964 187.666 562.385 188.33 561.223 189.502C559.769 190.969 558.62 192.708 557.839 194.619C557.059 196.53 556.663 198.575 556.675 200.639C556.687 202.703 557.105 204.744 557.907 206.646C558.709 208.548 559.879 210.274 561.348 211.724C562.818 213.174 564.56 214.321 566.474 215.098C568.387 215.875 570.436 216.268 572.502 216.254C574.567 216.24 576.61 215.82 578.513 215.017C580.416 214.214 582.142 213.043 583.592 211.574L587.969 207.146Z" fill="#6C63FF"/>
<path d="M534.588 154.477L516.65 136.778C515.473 135.62 513.885 134.976 512.234 134.986C510.583 134.996 509.003 135.66 507.841 136.833C506.388 138.299 505.238 140.038 504.458 141.949C503.677 143.86 503.282 145.906 503.293 147.969C503.305 150.033 503.724 152.074 504.526 153.976C505.327 155.878 506.497 157.604 507.967 159.054C509.436 160.504 511.178 161.651 513.092 162.428C515.006 163.206 517.054 163.599 519.12 163.585C521.186 163.571 523.228 163.15 525.131 162.347C527.035 161.544 528.76 160.374 530.211 158.904L534.588 154.477Z" fill="#6C63FF"/>
<path d="M568.258 218.17L567.829 219.298C565.814 218.534 563.861 217.768 561.97 216.999C528.471 203.343 512.479 187.361 501.782 157.022L501.775 157.015C501.267 155.588 500.774 154.127 500.295 152.632L501.424 152.268C501.802 153.705 502.354 155.091 503.068 156.394C503.654 158.058 504.257 159.678 504.876 161.256C514.93 186.861 529.757 201.495 558.182 213.851C559.612 214.472 561.076 215.088 562.577 215.7C564.319 216.834 566.24 217.669 568.258 218.17V218.17Z" fill="#3F3D56"/>
<path d="M516.975 166.195L515.971 167.211L553.084 203.829L554.088 202.813L516.975 166.195Z" fill="#3F3D56"/>
<path d="M202.769 135.853L202.788 112.395L188.984 113.627L193.856 128.422L176.172 155.201C175.066 155.449 174.057 156.013 173.266 156.824C172.476 157.636 171.938 158.659 171.72 159.77C171.502 160.881 171.612 162.031 172.037 163.081C172.462 164.131 173.183 165.034 174.113 165.681C175.043 166.328 176.141 166.691 177.274 166.725C178.407 166.759 179.525 166.464 180.493 165.874C181.46 165.284 182.235 164.426 182.722 163.404C183.21 162.382 183.39 161.241 183.239 160.119L202.769 135.853Z" fill="#FFB6B6"/>
</g>
<defs>
<clipPath id="clip0_23_505">
<rect width="639" height="320" fill="white"/>
</clipPath>
</defs>
</svg>
